<svg xmlns="http://www.w3.org/2000/svg" viewBox="0 0 841.9 595.3"><g fill="#61DAFB"><path d="M666.3 296.5c0-25.1-20.4-45.5-45.5-45.5-25.1 0-45.5 20.4-45.5 45.5s20.4 45.5 45.5 45.5c25.1 0 45.5-20.4 45.5-45.5zm-45.5 27.5c-15.2 0-27.5-12.3-27.5-27.5s12.3-27.5 27.5-27.5 27.5 12.3 27.5 27.5-12.3 27.5-27.5 27.5z"/><path d="M667.4 327.7c-1.7-2.9-3.5-5.7-5.4-8.5-1.9-2.8-3.9-5.5-6-8.2-2.1-2.7-4.3-5.3-6.6-7.8-2.3-2.5-4.7-4.9-7.2-7.2-2.5-2.3-5.1-4.5-7.7-6.6-2.6-2.1-5.3-4.1-8-6-2.7-1.9-5.5-3.7-8.3-5.4-2.8-1.7-5.7-3.3-8.6-4.8-2.9-1.5-5.9-2.9-8.9-4.2-3-1.3-6-2.5-9.1-3.6-3.1-1.1-6.2-2.1-9.3-3-3.1-.9-6.3-1.7-9.5-2.4-3.2-.7-6.4-1.3-9.6-1.8-3.2-.5-6.5-.9-9.7-1.2-3.2-.3-6.5-.5-9.7-.6-3.2-.1-6.5-.1-9.7 0-3.2.1-6.5.3-9.7.6-3.2.3-6.5.7-9.7 1.2-3.2.5-6.4 1.1-9.6 1.8-3.2.7-6.4 1.5-9.5 2.4-3.1.9-6.2 1.9-9.3 3-3.1 1.1-6.1 2.3-9.1 3.6-3 1.3-6 2.7-8.9 4.2-2.9 1.5-5.8 3.1-8.6 4.8-2.8 1.7-5.6 3.5-8.3 5.4-2.7 1.9-5.4 3.9-8 6-2.6 2.1-5.2 4.3-7.7 6.6-2.5 2.3-4.9 4.7-7.2 7.2-2.3 2.5-4.5 5.1-6.6 7.8-2.1 2.7-4.1 5.4-6 8.2-1.9 2.8-3.7 5.6-5.4 8.5-1.7 2.9-3.3 5.8-4.8 8.8-1.5 3-2.9 6-4.2 9.1-1.3 3.1-2.5 6.2-3.6 9.3-1.1 3.1-2.1 6.3-3 9.5-.9 3.2-1.7 6.4-2.4 9.6-.7 3.2-1.3 6.5-1.8 9.7-.5 3.2-.9 6.5-1.2 9.7-.3 3.2-.5 6.5-.6 9.7-.1 3.2-.1 6.5 0 9.7.1 3.2.3 6.5.6 9.7.3 3.2.7 6.5 1.2 9.7.5 3.2 1.1 6.4 1.8 9.6.7 3.2 1.5 6.4 2.4 9.5.9 3.1 1.9 6.2 3 9.3 1.1 3.1 2.3 6.1 3.6 9.1 1.3 3 2.7 6 4.2 9.1 1.5 3 3.1 5.9 4.8 8.8 1.7 2.9 3.5 5.7 5.4 8.5 1.9 2.8 3.9 5.5 6 8.2 2.1 2.7 4.3 5.3 6.6 7.8 2.3 2.5 4.7 4.9 7.2 7.2 2.5 2.3 5.1 4.5 7.7 6.6 2.6 2.1 5.3 4.1 8 6 2.7 1.9 5.5 3.7 8.3 5.4 2.8 1.7 5.7 3.3 8.6 4.8 2.9 1.5 5.9 2.9 8.9 4.2 3 1.3 6 2.5 9.1 3.6 3.1 1.1 6.2 2.1 9.3 3 3.1.9 6.3 1.7 9.5 2.4 3.2.7 6.4 1.3 9.6 1.8 3.2.5 6.5.9 9.7 1.2 3.2.3 6.5.5 9.7.6 3.2.1 6.5.1 9.7 0 3.2-.1 6.5-.3 9.7-.6 3.2-.3 6.5-.7 9.7-1.2 3.2-.5 6.4-1.1 9.6-1.8 3.2-.7 6.4-1.5 9.5-2.4 3.1-.9 6.2-1.9 9.3-3 3.1-1.1 6.1-2.3 9.1-3.6 3-1.3 6-2.7 8.9-4.2 2.9-1.5 5.8-3.1 8.6-4.8 2.8-1.7 5.6-3.5 8.3-5.4 2.7-1.9 5.4-3.9 8-6 2.6-2.1 5.2-4.3 7.7-6.6 2.5-2.3 4.9-4.7 7.2-7.2 2.3-2.5 4.5-5.1 6.6-7.8 2.1-2.7 4.1-5.4 6-8.2 1.9-2.8 3.7-5.6 5.4-8.5 1.7-2.9 3.3-5.8 4.8-8.8 1.5-3 2.9-6 4.2-9.1 1.3-3.1 2.5-6.2 3.6-9.3 1.1-3.1 2.1-6.3 3-9.5.9-3.2 1.7-6.4 2.4-9.6.7-3.2 1.3-6.5 1.8-9.7.5-3.2.9-6.5 1.2-9.7.3-3.2.5-6.5.6-9.7.1-3.2.1-6.5 0-9.7-.1-3.2-.3-6.5-.6-9.7-.3-3.2-.7-6.5-1.2-9.7-.5-3.2-1.1-6.4-1.8-9.6-.7-3.2-1.5-6.4-2.4-9.5-.9-3.1-1.9-6.2-3-9.3-1.1-3.1-2.3-6.1-3.6-9.1-1.3-3-2.7-6-4.2-9.1-1.5-3-3.1-5.9-4.8-8.8zM421 338.7c-23.4 0-42.4-19-42.4-42.4s19-42.4 42.4-42.4 42.4 19 42.4 42.4-19 42.4-42.4 42.4z"/><circle cx="421" cy="296.5" r="42.4"/><path d="M520.5 78.1c-1.7-2.9-3.5-5.7-5.4-8.5-1.9-2.8-3.9-5.5-6-8.2-2.1-2.7-4.3-5.3-6.6-7.8-2.3-2.5-4.7-4.9-7.2-7.2-2.5-2.3-5.1-4.5-7.7-6.6-2.6-2.1-5.3-4.1-8-6-2.7-1.9-5.5-3.7-8.3-5.4-2.8-1.7-5.7-3.3-8.6-4.8-2.9-1.5-5.9-2.9-8.9-4.2-3-1.3-6-2.5-9.1-3.6-3.1-1.1-6.2-2.1-9.3-3-3.1-.9-6.3-1.7-9.5-2.4-3.2-.7-6.4-1.3-9.6-1.8-3.2-.5-6.5-.9-9.7-1.2-3.2-.3-6.5-.5-9.7-.6-3.2-.1-6.5-.1-9.7 0-3.2.1-6.5.3-9.7.6-3.2.3-6.5.7-9.7 1.2-3.2.5-6.4 1.1-9.6 1.8-3.2.7-6.4 1.5-9.5 2.4-3.1.9-6.2 1.9-9.3 3-3.1 1.1-6.1 2.3-9.1 3.6-3 1.3-6 2.7-8.9 4.2-2.9 1.5-5.8 3.1-8.6 4.8-2.8 1.7-5.6 3.5-8.3 5.4-2.7 1.9-5.4 3.9-8 6-2.6 2.1-5.2 4.3-7.7 6.6-2.5 2.3-4.9 4.7-7.2 7.2-2.3 2.5-4.5 5.1-6.6 7.8-2.1 2.7-4.1 5.4-6 8.2-1.9 2.8-3.7 5.6-5.4 8.5-1.7 2.9-3.3 5.8-4.8 8.8-1.5 3-2.9 6-4.2 9.1-1.3 3.1-2.5 6.2-3.6 9.3-1.1 3.1-2.1 6.3-3 9.5-.9 3.2-1.7 6.4-2.4 9.6-.7 3.2-1.3 6.5-1.8 9.7-.5 3.2-.9 6.5-1.2 9.7-.3 3.2-.5 6.5-.6 9.7-.1 3.2-.1 6.5 0 9.7.1 3.2.3 6.5.6 9.7.3 3.2.7 6.5 1.2 9.7.5 3.2 1.1 6.4 1.8 9.6.7 3.2 1.5 6.4 2.4 9.5.9 3.1 1.9 6.2 3 9.3 1.1 3.1 2.3 6.1 3.6 9.1 1.3 3 2.7 6 4.2 9.1 1.5 3 3.1 5.9 4.8 8.8 1.7 2.9 3.5 5.7 5.4 8.5 1.9 2.8 3.9 5.5 6 8.2 2.1 2.7 4.3 5.3 6.6 7.8 2.3 2.5 4.7 4.9 7.2 7.2 2.5 2.3 5.1 4.5 7.7 6.6 2.6 2.1 5.3 4.1 8 6 2.7 1.9 5.5 3.7 8.3 5.4 2.8 1.7 5.7 3.3 8.6 4.8 2.9 1.5 5.9 2.9 8.9 4.2 3 1.3 6 2.5 9.1 3.6 3.1 1.1 6.2 2.1 9.3 3 3.1.9 6.3 1.7 9.5 2.4 3.2.7 6.4 1.3 9.6 1.8 3.2.5 6.5.9 9.7 1.2 3.2.3 6.5.5 9.7.6 3.2.1 6.5.1 9.7 0 3.2-.1 6.5-.3 9.7-.6 3.2-.3 6.5-.7 9.7-1.2 3.2-.5 6.4-1.1 9.6-1.8 3.2-.7 6.4-1.5 9.5-2.4 3.1-.9 6.2-1.9 9.3-3 3.1-1.1 6.1-2.3 9.1-3.6 3-1.3 6-2.7 8.9-4.2 2.9-1.5 5.8-3.1 8.6-4.8 2.8-1.7 5.6-3.5 8.3-5.4 2.7-1.9 5.4-3.9 8-6 2.6-2.1 5.2-4.3 7.7-6.6 2.5-2.3 4.9-4.7 7.2-7.2 2.3-2.5 4.5-5.1 6.6-7.8 2.1-2.7 4.1-5.4 6-8.2 1.9-2.8 3.7-5.6 5.4-8.5 1.7-2.9 3.3-5.8 4.8-8.8z"/></g></svg> 